<mxfile host="Electron" agent="Mozilla/5.0 (Windows NT 10.0; Win64; x64) AppleWebKit/537.36 (KHTML, like Gecko) draw.io/27.0.9 Chrome/134.0.6998.205 Electron/35.4.0 Safari/537.36" version="27.0.9">
  <diagram name="Page-1" id="PrbkuuTU3qAWmknX3Nc8">
    <mxGraphModel dx="1028" dy="596" grid="1" gridSize="10" guides="1" tooltips="1" connect="1" arrows="1" fold="1" page="1" pageScale="1" pageWidth="850" pageHeight="1100" math="0" shadow="0">
      <root>
        <mxCell id="0" />
        <mxCell id="1" parent="0" />
        <mxCell id="xn6Xxrh8XI3LQ95My4pN-22" style="edgeStyle=none;shape=connector;rounded=0;orthogonalLoop=1;jettySize=auto;html=1;strokeColor=default;align=center;verticalAlign=middle;fontFamily=Helvetica;fontSize=11;fontColor=default;labelBackgroundColor=default;startFill=0;endArrow=none;" edge="1" parent="1" source="xn6Xxrh8XI3LQ95My4pN-1" target="xn6Xxrh8XI3LQ95My4pN-13">
          <mxGeometry relative="1" as="geometry" />
        </mxCell>
        <mxCell id="xn6Xxrh8XI3LQ95My4pN-1" value="" style="shape=mxgraph.cisco.routers.router;sketch=0;html=1;pointerEvents=1;dashed=0;fillColor=#036897;strokeColor=#ffffff;strokeWidth=2;verticalLabelPosition=bottom;verticalAlign=top;align=center;outlineConnect=0;" vertex="1" parent="1">
          <mxGeometry x="120" y="100" width="78" height="53" as="geometry" />
        </mxCell>
        <mxCell id="xn6Xxrh8XI3LQ95My4pN-21" style="edgeStyle=none;shape=connector;rounded=0;orthogonalLoop=1;jettySize=auto;html=1;strokeColor=default;align=center;verticalAlign=middle;fontFamily=Helvetica;fontSize=11;fontColor=default;labelBackgroundColor=default;startFill=0;endArrow=none;" edge="1" parent="1" source="xn6Xxrh8XI3LQ95My4pN-2" target="xn6Xxrh8XI3LQ95My4pN-13">
          <mxGeometry relative="1" as="geometry" />
        </mxCell>
        <mxCell id="xn6Xxrh8XI3LQ95My4pN-2" value="" style="shape=mxgraph.cisco.routers.router;sketch=0;html=1;pointerEvents=1;dashed=0;fillColor=#036897;strokeColor=#ffffff;strokeWidth=2;verticalLabelPosition=bottom;verticalAlign=top;align=center;outlineConnect=0;" vertex="1" parent="1">
          <mxGeometry x="440" y="100" width="78" height="53" as="geometry" />
        </mxCell>
        <mxCell id="xn6Xxrh8XI3LQ95My4pN-3" value="" style="shape=mxgraph.cisco.computers_and_peripherals.pc;sketch=0;html=1;pointerEvents=1;dashed=0;fillColor=#036897;strokeColor=#ffffff;strokeWidth=2;verticalLabelPosition=bottom;verticalAlign=top;align=center;outlineConnect=0;" vertex="1" parent="1">
          <mxGeometry x="130" y="380" width="78" height="70" as="geometry" />
        </mxCell>
        <mxCell id="xn6Xxrh8XI3LQ95My4pN-4" value="" style="shape=mxgraph.cisco.computers_and_peripherals.pc;sketch=0;html=1;pointerEvents=1;dashed=0;fillColor=#036897;strokeColor=#ffffff;strokeWidth=2;verticalLabelPosition=bottom;verticalAlign=top;align=center;outlineConnect=0;" vertex="1" parent="1">
          <mxGeometry x="390" y="270" height="70" as="geometry" />
        </mxCell>
        <mxCell id="xn6Xxrh8XI3LQ95My4pN-17" style="edgeStyle=none;shape=connector;rounded=0;orthogonalLoop=1;jettySize=auto;html=1;strokeColor=default;align=center;verticalAlign=middle;fontFamily=Helvetica;fontSize=11;fontColor=default;labelBackgroundColor=default;startFill=0;endArrow=none;" edge="1" parent="1" source="xn6Xxrh8XI3LQ95My4pN-5" target="xn6Xxrh8XI3LQ95My4pN-13">
          <mxGeometry relative="1" as="geometry" />
        </mxCell>
        <mxCell id="xn6Xxrh8XI3LQ95My4pN-5" value="" style="shape=mxgraph.cisco.computers_and_peripherals.pc;sketch=0;html=1;pointerEvents=1;dashed=0;fillColor=#036897;strokeColor=#ffffff;strokeWidth=2;verticalLabelPosition=bottom;verticalAlign=top;align=center;outlineConnect=0;" vertex="1" parent="1">
          <mxGeometry x="440" y="380" width="78" height="70" as="geometry" />
        </mxCell>
        <mxCell id="xn6Xxrh8XI3LQ95My4pN-10" value="" style="rounded=0;orthogonalLoop=1;jettySize=auto;html=1;endArrow=none;startFill=0;entryX=0;entryY=0.5;entryDx=0;entryDy=0;entryPerimeter=0;" edge="1" parent="1" source="xn6Xxrh8XI3LQ95My4pN-1" target="xn6Xxrh8XI3LQ95My4pN-2">
          <mxGeometry relative="1" as="geometry">
            <mxPoint x="198" y="127" as="sourcePoint" />
            <mxPoint x="415" y="126.5" as="targetPoint" />
          </mxGeometry>
        </mxCell>
        <mxCell id="xn6Xxrh8XI3LQ95My4pN-13" value="" style="shape=mxgraph.cisco.switches.workgroup_switch;sketch=0;html=1;pointerEvents=1;dashed=0;fillColor=#036897;strokeColor=#ffffff;strokeWidth=2;verticalLabelPosition=bottom;verticalAlign=top;align=center;outlineConnect=0;" vertex="1" parent="1">
          <mxGeometry x="280" y="240" width="101" height="50" as="geometry" />
        </mxCell>
        <mxCell id="xn6Xxrh8XI3LQ95My4pN-16" style="edgeStyle=none;shape=connector;rounded=0;orthogonalLoop=1;jettySize=auto;html=1;entryX=0;entryY=0.98;entryDx=0;entryDy=0;entryPerimeter=0;strokeColor=default;align=center;verticalAlign=middle;fontFamily=Helvetica;fontSize=11;fontColor=default;labelBackgroundColor=default;startFill=0;endArrow=none;" edge="1" parent="1" source="xn6Xxrh8XI3LQ95My4pN-3" target="xn6Xxrh8XI3LQ95My4pN-13">
          <mxGeometry relative="1" as="geometry" />
        </mxCell>
        <mxCell id="xn6Xxrh8XI3LQ95My4pN-23" value="192.168.2.0/24" style="text;strokeColor=none;align=center;fillColor=none;html=1;verticalAlign=middle;whiteSpace=wrap;rounded=0;fontFamily=Helvetica;fontSize=11;fontColor=default;labelBackgroundColor=default;" vertex="1" parent="1">
          <mxGeometry x="280" y="90" width="60" height="30" as="geometry" />
        </mxCell>
        <mxCell id="xn6Xxrh8XI3LQ95My4pN-25" value="PC1&lt;div&gt;192.168.1.10/24&lt;/div&gt;&lt;div&gt;DG 192.168.1.254&lt;/div&gt;" style="text;strokeColor=none;align=center;fillColor=none;html=1;verticalAlign=middle;whiteSpace=wrap;rounded=0;fontFamily=Helvetica;fontSize=11;fontColor=default;labelBackgroundColor=default;" vertex="1" parent="1">
          <mxGeometry x="99" y="450" width="120" height="30" as="geometry" />
        </mxCell>
        <mxCell id="xn6Xxrh8XI3LQ95My4pN-26" value="PC2&lt;div&gt;192.168.1.11/24&lt;/div&gt;&lt;div&gt;DG 192.168.1.254&lt;/div&gt;" style="text;strokeColor=none;align=center;fillColor=none;html=1;verticalAlign=middle;whiteSpace=wrap;rounded=0;fontFamily=Helvetica;fontSize=11;fontColor=default;labelBackgroundColor=default;" vertex="1" parent="1">
          <mxGeometry x="424" y="460" width="110" height="30" as="geometry" />
        </mxCell>
        <mxCell id="xn6Xxrh8XI3LQ95My4pN-27" value="GLBP Group 1&lt;div&gt;VIP 192.168.1.254&lt;/div&gt;" style="text;strokeColor=none;align=center;fillColor=none;html=1;verticalAlign=middle;whiteSpace=wrap;rounded=0;fontFamily=Helvetica;fontSize=11;fontColor=default;labelBackgroundColor=default;" vertex="1" parent="1">
          <mxGeometry x="250.5" y="170" width="140" height="30" as="geometry" />
        </mxCell>
        <mxCell id="xn6Xxrh8XI3LQ95My4pN-28" style="edgeStyle=none;shape=connector;rounded=0;orthogonalLoop=1;jettySize=auto;html=1;exitX=0.16;exitY=0.5;exitDx=0;exitDy=0;exitPerimeter=0;entryX=0.256;entryY=0.5;entryDx=0;entryDy=0;entryPerimeter=0;strokeColor=default;align=center;verticalAlign=middle;fontFamily=Helvetica;fontSize=11;fontColor=default;labelBackgroundColor=default;startFill=0;endArrow=none;" edge="1" parent="1" source="xn6Xxrh8XI3LQ95My4pN-5" target="xn6Xxrh8XI3LQ95My4pN-5">
          <mxGeometry relative="1" as="geometry" />
        </mxCell>
        <mxCell id="xn6Xxrh8XI3LQ95My4pN-29" value=".1" style="text;strokeColor=none;align=center;fillColor=none;html=1;verticalAlign=middle;whiteSpace=wrap;rounded=0;fontFamily=Helvetica;fontSize=11;fontColor=default;labelBackgroundColor=default;" vertex="1" parent="1">
          <mxGeometry x="160" y="160" width="40" height="10" as="geometry" />
        </mxCell>
        <mxCell id="xn6Xxrh8XI3LQ95My4pN-30" value=".2" style="text;strokeColor=none;align=center;fillColor=none;html=1;verticalAlign=middle;whiteSpace=wrap;rounded=0;fontFamily=Helvetica;fontSize=11;fontColor=default;labelBackgroundColor=default;" vertex="1" parent="1">
          <mxGeometry x="450" y="150" width="20" height="30" as="geometry" />
        </mxCell>
        <mxCell id="xn6Xxrh8XI3LQ95My4pN-32" value=".1" style="text;strokeColor=none;align=center;fillColor=none;html=1;verticalAlign=middle;whiteSpace=wrap;rounded=0;fontFamily=Helvetica;fontSize=11;fontColor=default;labelBackgroundColor=default;" vertex="1" parent="1">
          <mxGeometry x="180" y="100" width="60" height="30" as="geometry" />
        </mxCell>
        <mxCell id="xn6Xxrh8XI3LQ95My4pN-33" value=".2" style="text;strokeColor=none;align=center;fillColor=none;html=1;verticalAlign=middle;whiteSpace=wrap;rounded=0;fontFamily=Helvetica;fontSize=11;fontColor=default;labelBackgroundColor=default;" vertex="1" parent="1">
          <mxGeometry x="400" y="100" width="60" height="30" as="geometry" />
        </mxCell>
        <mxCell id="xn6Xxrh8XI3LQ95My4pN-34" value="SW1" style="text;strokeColor=none;align=center;fillColor=none;html=1;verticalAlign=middle;whiteSpace=wrap;rounded=0;fontFamily=Helvetica;fontSize=11;fontColor=default;labelBackgroundColor=default;" vertex="1" parent="1">
          <mxGeometry x="290.5" y="280" width="60" height="30" as="geometry" />
        </mxCell>
        <mxCell id="xn6Xxrh8XI3LQ95My4pN-35" value="R1" style="text;strokeColor=none;align=center;fillColor=none;html=1;verticalAlign=middle;whiteSpace=wrap;rounded=0;fontFamily=Helvetica;fontSize=11;fontColor=default;labelBackgroundColor=default;" vertex="1" parent="1">
          <mxGeometry x="130" y="70" width="60" height="30" as="geometry" />
        </mxCell>
        <mxCell id="xn6Xxrh8XI3LQ95My4pN-36" value="R2" style="text;strokeColor=none;align=center;fillColor=none;html=1;verticalAlign=middle;whiteSpace=wrap;rounded=0;fontFamily=Helvetica;fontSize=11;fontColor=default;labelBackgroundColor=default;" vertex="1" parent="1">
          <mxGeometry x="450" y="70" width="60" height="30" as="geometry" />
        </mxCell>
      </root>
    </mxGraphModel>
  </diagram>
</mxfile>
